<svg width="192" height="192" viewBox="0 0 192 192" fill="none" xmlns="http://www.w3.org/2000/svg">
  <!-- Background Circle -->
  <circle cx="96" cy="96" r="96" fill="#00C853"/>
  
  <!-- Inner Circle -->
  <circle cx="96" cy="96" r="80" fill="white" fill-opacity="0.1"/>
  
  <!-- Productivity Graph Icon -->
  <g transform="translate(48, 48)">
    <!-- Grid Lines -->
    <path d="M16 16L16 80M32 16L32 80M48 16L48 80M64 16L64 80M80 16L80 80" stroke="white" stroke-opacity="0.3" stroke-width="1"/>
    <path d="M16 16L80 16M16 32L80 32M16 48L80 48M16 64L80 64M16 80L80 80" stroke="white" stroke-opacity="0.3" stroke-width="1"/>
    
    <!-- Progress Bars -->
    <rect x="20" y="64" width="8" height="12" fill="white" rx="2"/>
    <rect x="32" y="56" width="8" height="20" fill="white" rx="2"/>
    <rect x="44" y="40" width="8" height="36" fill="white" rx="2"/>
    <rect x="56" y="32" width="8" height="44" fill="white" rx="2"/>
    <rect x="68" y="24" width="8" height="52" fill="white" rx="2"/>
    
    <!-- Trend Line -->
    <path d="M24 68L36 60L48 44L60 36L72 28" stroke="#FFD600" stroke-width="3" stroke-linecap="round" fill="none"/>
    <circle cx="24" cy="68" r="3" fill="#FFD600"/>
    <circle cx="36" cy="60" r="3" fill="#FFD600"/>
    <circle cx="48" cy="44" r="3" fill="#FFD600"/>
    <circle cx="60" cy="36" r="3" fill="#FFD600"/>
    <circle cx="72" cy="28" r="3" fill="#FFD600"/>
  </g>
  
  <!-- AI Symbol -->
  <g transform="translate(140, 140)">
    <circle cx="16" cy="16" r="16" fill="white" fill-opacity="0.9"/>
    <text x="16" y="22" text-anchor="middle" font-family="Arial, sans-serif" font-size="16" font-weight="bold" fill="#00C853">AI</text>
  </g>
</svg>